<?xml version="1.0" encoding="utf-8" standalone="no"?>
<!DOCTYPE svg PUBLIC "-//W3C//DTD SVG 1.1//EN"
  "http://www.w3.org/Graphics/SVG/1.1/DTD/svg11.dtd">
<!-- Created with matplotlib (https://matplotlib.org/) -->
<svg height="275.745625pt" version="1.1" viewBox="0 0 372.103125 275.745625" width="372.103125pt" xmlns="http://www.w3.org/2000/svg" xmlns:xlink="http://www.w3.org/1999/xlink">
 <metadata>
  <rdf:RDF xmlns:cc="http://creativecommons.org/ns#" xmlns:dc="http://purl.org/dc/elements/1.1/" xmlns:rdf="http://www.w3.org/1999/02/22-rdf-syntax-ns#">
   <cc:Work>
    <dc:type rdf:resource="http://purl.org/dc/dcmitype/StillImage"/>
    <dc:date>2022-12-30T17:37:21.688509</dc:date>
    <dc:format>image/svg+xml</dc:format>
    <dc:creator>
     <cc:Agent>
      <dc:title>Matplotlib v3.3.4, https://matplotlib.org/</dc:title>
     </cc:Agent>
    </dc:creator>
   </cc:Work>
  </rdf:RDF>
 </metadata>
 <defs>
  <style type="text/css">*{stroke-linecap:butt;stroke-linejoin:round;}</style>
 </defs>
 <g id="figure_1">
  <g id="patch_1">
   <path d="M 0 275.745625 
L 372.103125 275.745625 
L 372.103125 0 
L 0 0 
z
" style="fill:none;"/>
  </g>
  <g id="axes_1">
   <g id="patch_2">
    <path d="M 30.103125 224.64 
L 364.903125 224.64 
L 364.903125 7.2 
L 30.103125 7.2 
z
" style="fill:#ffffff;"/>
   </g>
   <g id="PathCollection_1">
    <defs>
     <path d="M 0 3 
C 0.795609 3 1.55874 2.683901 2.12132 2.12132 
C 2.683901 1.55874 3 0.795609 3 0 
C 3 -0.795609 2.683901 -1.55874 2.12132 -2.12132 
C 1.55874 -2.683901 0.795609 -3 0 -3 
C -0.795609 -3 -1.55874 -2.683901 -2.12132 -2.12132 
C -2.683901 -1.55874 -3 -0.795609 -3 0 
C -3 0.795609 -2.683901 1.55874 -2.12132 2.12132 
C -1.55874 2.683901 -0.795609 3 0 3 
z
" id="m1cbb48b66c" style="stroke:#1f77b4;"/>
    </defs>
    <g clip-path="url(#pac34155aec)">
     <use style="fill:#1f77b4;stroke:#1f77b4;" x="251.223068" xlink:href="#m1cbb48b66c" y="69.620095"/>
     <use style="fill:#1f77b4;stroke:#1f77b4;" x="194.251938" xlink:href="#m1cbb48b66c" y="101.904614"/>
     <use style="fill:#1f77b4;stroke:#1f77b4;" x="298.61132" xlink:href="#m1cbb48b66c" y="52.9749"/>
     <use style="fill:#1f77b4;stroke:#1f77b4;" x="53.020563" xlink:href="#m1cbb48b66c" y="208.267604"/>
     <use style="fill:#1f77b4;stroke:#1f77b4;" x="293.215704" xlink:href="#m1cbb48b66c" y="34.996768"/>
     <use style="fill:#1f77b4;stroke:#1f77b4;" x="218.233923" xlink:href="#m1cbb48b66c" y="118.736222"/>
     <use style="fill:#1f77b4;stroke:#1f77b4;" x="135.345974" xlink:href="#m1cbb48b66c" y="153.145473"/>
     <use style="fill:#1f77b4;stroke:#1f77b4;" x="57.737018" xlink:href="#m1cbb48b66c" y="210.100355"/>
     <use style="fill:#1f77b4;stroke:#1f77b4;" x="349.684943" xlink:href="#m1cbb48b66c" y="24.091576"/>
     <use style="fill:#1f77b4;stroke:#1f77b4;" x="45.405659" xlink:href="#m1cbb48b66c" y="187.896715"/>
     <use style="fill:#1f77b4;stroke:#1f77b4;" x="281.383245" xlink:href="#m1cbb48b66c" y="65.349349"/>
     <use style="fill:#1f77b4;stroke:#1f77b4;" x="274.261573" xlink:href="#m1cbb48b66c" y="71.32968"/>
     <use style="fill:#1f77b4;stroke:#1f77b4;" x="160.032341" xlink:href="#m1cbb48b66c" y="142.51047"/>
     <use style="fill:#1f77b4;stroke:#1f77b4;" x="196.129031" xlink:href="#m1cbb48b66c" y="132.963578"/>
     <use style="fill:#1f77b4;stroke:#1f77b4;" x="330.608289" xlink:href="#m1cbb48b66c" y="25.423953"/>
     <use style="fill:#1f77b4;stroke:#1f77b4;" x="165.60422" xlink:href="#m1cbb48b66c" y="120.354856"/>
     <use style="fill:#1f77b4;stroke:#1f77b4;" x="344.52875" xlink:href="#m1cbb48b66c" y="22.231776"/>
     <use style="fill:#1f77b4;stroke:#1f77b4;" x="205.49037" xlink:href="#m1cbb48b66c" y="90.315955"/>
     <use style="fill:#1f77b4;stroke:#1f77b4;" x="72.248057" xlink:href="#m1cbb48b66c" y="202.612334"/>
     <use style="fill:#1f77b4;stroke:#1f77b4;" x="294.842086" xlink:href="#m1cbb48b66c" y="69.857055"/>
     <use style="fill:#1f77b4;stroke:#1f77b4;" x="108.766982" xlink:href="#m1cbb48b66c" y="149.110573"/>
     <use style="fill:#1f77b4;stroke:#1f77b4;" x="214.747728" xlink:href="#m1cbb48b66c" y="95.783238"/>
     <use style="fill:#1f77b4;stroke:#1f77b4;" x="133.69023" xlink:href="#m1cbb48b66c" y="149.537132"/>
     <use style="fill:#1f77b4;stroke:#1f77b4;" x="295.718595" xlink:href="#m1cbb48b66c" y="43.576521"/>
     <use style="fill:#1f77b4;stroke:#1f77b4;" x="299.399201" xlink:href="#m1cbb48b66c" y="41.258573"/>
     <use style="fill:#1f77b4;stroke:#1f77b4;" x="111.826034" xlink:href="#m1cbb48b66c" y="160.546639"/>
     <use style="fill:#1f77b4;stroke:#1f77b4;" x="242.734978" xlink:href="#m1cbb48b66c" y="78.193842"/>
     <use style="fill:#1f77b4;stroke:#1f77b4;" x="72.733186" xlink:href="#m1cbb48b66c" y="197.10282"/>
     <use style="fill:#1f77b4;stroke:#1f77b4;" x="170.61755" xlink:href="#m1cbb48b66c" y="119.595718"/>
     <use style="fill:#1f77b4;stroke:#1f77b4;" x="73.253918" xlink:href="#m1cbb48b66c" y="190.026081"/>
     <use style="fill:#1f77b4;stroke:#1f77b4;" x="87.835588" xlink:href="#m1cbb48b66c" y="171.685963"/>
     <use style="fill:#1f77b4;stroke:#1f77b4;" x="108.92453" xlink:href="#m1cbb48b66c" y="160.16827"/>
     <use style="fill:#1f77b4;stroke:#1f77b4;" x="190.71916" xlink:href="#m1cbb48b66c" y="112.055215"/>
     <use style="fill:#1f77b4;stroke:#1f77b4;" x="67.299659" xlink:href="#m1cbb48b66c" y="179.814658"/>
     <use style="fill:#1f77b4;stroke:#1f77b4;" x="115.991049" xlink:href="#m1cbb48b66c" y="179.656263"/>
     <use style="fill:#1f77b4;stroke:#1f77b4;" x="45.321307" xlink:href="#m1cbb48b66c" y="214.756364"/>
     <use style="fill:#1f77b4;stroke:#1f77b4;" x="321.235524" xlink:href="#m1cbb48b66c" y="50.070406"/>
     <use style="fill:#1f77b4;stroke:#1f77b4;" x="214.094708" xlink:href="#m1cbb48b66c" y="82.423105"/>
     <use style="fill:#1f77b4;stroke:#1f77b4;" x="95.114905" xlink:href="#m1cbb48b66c" y="165.654951"/>
     <use style="fill:#1f77b4;stroke:#1f77b4;" x="330.586574" xlink:href="#m1cbb48b66c" y="50.225143"/>
     <use style="fill:#1f77b4;stroke:#1f77b4;" x="210.956434" xlink:href="#m1cbb48b66c" y="97.062476"/>
     <use style="fill:#1f77b4;stroke:#1f77b4;" x="56.209999" xlink:href="#m1cbb48b66c" y="180.0603"/>
     <use style="fill:#1f77b4;stroke:#1f77b4;" x="205.6333" xlink:href="#m1cbb48b66c" y="90.328282"/>
     <use style="fill:#1f77b4;stroke:#1f77b4;" x="241.283743" xlink:href="#m1cbb48b66c" y="100.737845"/>
     <use style="fill:#1f77b4;stroke:#1f77b4;" x="290.9295" xlink:href="#m1cbb48b66c" y="38.48326"/>
     <use style="fill:#1f77b4;stroke:#1f77b4;" x="301.525963" xlink:href="#m1cbb48b66c" y="64.560741"/>
     <use style="fill:#1f77b4;stroke:#1f77b4;" x="121.430968" xlink:href="#m1cbb48b66c" y="173.021907"/>
     <use style="fill:#1f77b4;stroke:#1f77b4;" x="342.771126" xlink:href="#m1cbb48b66c" y="22.547378"/>
     <use style="fill:#1f77b4;stroke:#1f77b4;" x="187.496979" xlink:href="#m1cbb48b66c" y="139.804151"/>
     <use style="fill:#1f77b4;stroke:#1f77b4;" x="124.975094" xlink:href="#m1cbb48b66c" y="142.024231"/>
     <use style="fill:#1f77b4;stroke:#1f77b4;" x="213.211375" xlink:href="#m1cbb48b66c" y="120.032789"/>
     <use style="fill:#1f77b4;stroke:#1f77b4;" x="159.999819" xlink:href="#m1cbb48b66c" y="153.578262"/>
     <use style="fill:#1f77b4;stroke:#1f77b4;" x="106.305522" xlink:href="#m1cbb48b66c" y="151.863089"/>
     <use style="fill:#1f77b4;stroke:#1f77b4;" x="326.437247" xlink:href="#m1cbb48b66c" y="17.083636"/>
     <use style="fill:#1f77b4;stroke:#1f77b4;" x="333.772018" xlink:href="#m1cbb48b66c" y="21.922447"/>
     <use style="fill:#1f77b4;stroke:#1f77b4;" x="302.322302" xlink:href="#m1cbb48b66c" y="37.616165"/>
     <use style="fill:#1f77b4;stroke:#1f77b4;" x="177.151624" xlink:href="#m1cbb48b66c" y="105.266048"/>
     <use style="fill:#1f77b4;stroke:#1f77b4;" x="264.780574" xlink:href="#m1cbb48b66c" y="77.769297"/>
     <use style="fill:#1f77b4;stroke:#1f77b4;" x="306.606082" xlink:href="#m1cbb48b66c" y="57.674171"/>
     <use style="fill:#1f77b4;stroke:#1f77b4;" x="67.742824" xlink:href="#m1cbb48b66c" y="179.367637"/>
     <use style="fill:#1f77b4;stroke:#1f77b4;" x="170.090303" xlink:href="#m1cbb48b66c" y="123.305058"/>
     <use style="fill:#1f77b4;stroke:#1f77b4;" x="241.725272" xlink:href="#m1cbb48b66c" y="78.985491"/>
     <use style="fill:#1f77b4;stroke:#1f77b4;" x="345.300435" xlink:href="#m1cbb48b66c" y="17.362311"/>
     <use style="fill:#1f77b4;stroke:#1f77b4;" x="261.432644" xlink:href="#m1cbb48b66c" y="66.150286"/>
     <use style="fill:#1f77b4;stroke:#1f77b4;" x="240.19429" xlink:href="#m1cbb48b66c" y="100.740324"/>
     <use style="fill:#1f77b4;stroke:#1f77b4;" x="106.818436" xlink:href="#m1cbb48b66c" y="184.716898"/>
     <use style="fill:#1f77b4;stroke:#1f77b4;" x="133.936424" xlink:href="#m1cbb48b66c" y="150.116238"/>
     <use style="fill:#1f77b4;stroke:#1f77b4;" x="92.78393" xlink:href="#m1cbb48b66c" y="154.284923"/>
     <use style="fill:#1f77b4;stroke:#1f77b4;" x="137.297807" xlink:href="#m1cbb48b66c" y="137.610664"/>
     <use style="fill:#1f77b4;stroke:#1f77b4;" x="265.520836" xlink:href="#m1cbb48b66c" y="88.573931"/>
     <use style="fill:#1f77b4;stroke:#1f77b4;" x="339.587453" xlink:href="#m1cbb48b66c" y="49.827143"/>
     <use style="fill:#1f77b4;stroke:#1f77b4;" x="48.175805" xlink:href="#m1cbb48b66c" y="196.367258"/>
     <use style="fill:#1f77b4;stroke:#1f77b4;" x="139.97664" xlink:href="#m1cbb48b66c" y="142.861562"/>
     <use style="fill:#1f77b4;stroke:#1f77b4;" x="58.422702" xlink:href="#m1cbb48b66c" y="186.282013"/>
     <use style="fill:#1f77b4;stroke:#1f77b4;" x="313.851771" xlink:href="#m1cbb48b66c" y="56.901134"/>
     <use style="fill:#1f77b4;stroke:#1f77b4;" x="257.866397" xlink:href="#m1cbb48b66c" y="80.208653"/>
     <use style="fill:#1f77b4;stroke:#1f77b4;" x="298.940203" xlink:href="#m1cbb48b66c" y="45.013124"/>
     <use style="fill:#1f77b4;stroke:#1f77b4;" x="327.329748" xlink:href="#m1cbb48b66c" y="52.8204"/>
     <use style="fill:#1f77b4;stroke:#1f77b4;" x="90.652426" xlink:href="#m1cbb48b66c" y="189.447607"/>
     <use style="fill:#1f77b4;stroke:#1f77b4;" x="188.669335" xlink:href="#m1cbb48b66c" y="120.996007"/>
     <use style="fill:#1f77b4;stroke:#1f77b4;" x="212.249552" xlink:href="#m1cbb48b66c" y="115.74108"/>
     <use style="fill:#1f77b4;stroke:#1f77b4;" x="202.966011" xlink:href="#m1cbb48b66c" y="91.00669"/>
     <use style="fill:#1f77b4;stroke:#1f77b4;" x="266.111943" xlink:href="#m1cbb48b66c" y="87.083817"/>
     <use style="fill:#1f77b4;stroke:#1f77b4;" x="297.692723" xlink:href="#m1cbb48b66c" y="59.227029"/>
     <use style="fill:#1f77b4;stroke:#1f77b4;" x="116.059946" xlink:href="#m1cbb48b66c" y="146.246827"/>
     <use style="fill:#1f77b4;stroke:#1f77b4;" x="75.936924" xlink:href="#m1cbb48b66c" y="204.731158"/>
     <use style="fill:#1f77b4;stroke:#1f77b4;" x="233.161034" xlink:href="#m1cbb48b66c" y="84.737813"/>
     <use style="fill:#1f77b4;stroke:#1f77b4;" x="118.65481" xlink:href="#m1cbb48b66c" y="180.935749"/>
     <use style="fill:#1f77b4;stroke:#1f77b4;" x="299.060188" xlink:href="#m1cbb48b66c" y="34.618831"/>
     <use style="fill:#1f77b4;stroke:#1f77b4;" x="187.277717" xlink:href="#m1cbb48b66c" y="136.434114"/>
     <use style="fill:#1f77b4;stroke:#1f77b4;" x="257.022649" xlink:href="#m1cbb48b66c" y="94.093841"/>
     <use style="fill:#1f77b4;stroke:#1f77b4;" x="153.031293" xlink:href="#m1cbb48b66c" y="134.112613"/>
     <use style="fill:#1f77b4;stroke:#1f77b4;" x="75.295558" xlink:href="#m1cbb48b66c" y="168.659459"/>
     <use style="fill:#1f77b4;stroke:#1f77b4;" x="135.73472" xlink:href="#m1cbb48b66c" y="151.953302"/>
     <use style="fill:#1f77b4;stroke:#1f77b4;" x="93.773285" xlink:href="#m1cbb48b66c" y="175.09828"/>
     <use style="fill:#1f77b4;stroke:#1f77b4;" x="115.30454" xlink:href="#m1cbb48b66c" y="145.837799"/>
     <use style="fill:#1f77b4;stroke:#1f77b4;" x="211.676989" xlink:href="#m1cbb48b66c" y="104.397666"/>
     <use style="fill:#1f77b4;stroke:#1f77b4;" x="153.064759" xlink:href="#m1cbb48b66c" y="140.759821"/>
     <use style="fill:#1f77b4;stroke:#1f77b4;" x="273.605927" xlink:href="#m1cbb48b66c" y="78.042659"/>
     <use style="fill:#1f77b4;stroke:#1f77b4;" x="243.763092" xlink:href="#m1cbb48b66c" y="92.333722"/>
    </g>
   </g>
   <g id="matplotlib.axis_1">
    <g id="xtick_1">
     <g id="line2d_1">
      <defs>
       <path d="M 0 0 
L 0 3.5 
" id="m9737a330e4" style="stroke:#000000;stroke-width:0.8;"/>
      </defs>
      <g>
       <use style="stroke:#000000;stroke-width:0.8;" x="43.294534" xlink:href="#m9737a330e4" y="224.64"/>
      </g>
     </g>
     <g id="text_1">
      <!-- 0.0 -->
      <g transform="translate(35.342971 239.238437)scale(0.1 -0.1)">
       <defs>
        <path d="M 31.78125 66.40625 
Q 24.171875 66.40625 20.328125 58.90625 
Q 16.5 51.421875 16.5 36.375 
Q 16.5 21.390625 20.328125 13.890625 
Q 24.171875 6.390625 31.78125 6.390625 
Q 39.453125 6.390625 43.28125 13.890625 
Q 47.125 21.390625 47.125 36.375 
Q 47.125 51.421875 43.28125 58.90625 
Q 39.453125 66.40625 31.78125 66.40625 
z
M 31.78125 74.21875 
Q 44.046875 74.21875 50.515625 64.515625 
Q 56.984375 54.828125 56.984375 36.375 
Q 56.984375 17.96875 50.515625 8.265625 
Q 44.046875 -1.421875 31.78125 -1.421875 
Q 19.53125 -1.421875 13.0625 8.265625 
Q 6.59375 17.96875 6.59375 36.375 
Q 6.59375 54.828125 13.0625 64.515625 
Q 19.53125 74.21875 31.78125 74.21875 
z
" id="DejaVuSans-48"/>
        <path d="M 10.6875 12.40625 
L 21 12.40625 
L 21 0 
L 10.6875 0 
z
" id="DejaVuSans-46"/>
       </defs>
       <use xlink:href="#DejaVuSans-48"/>
       <use x="63.623047" xlink:href="#DejaVuSans-46"/>
       <use x="95.410156" xlink:href="#DejaVuSans-48"/>
      </g>
     </g>
    </g>
    <g id="xtick_2">
     <g id="line2d_2">
      <g>
       <use style="stroke:#000000;stroke-width:0.8;" x="105.152384" xlink:href="#m9737a330e4" y="224.64"/>
      </g>
     </g>
     <g id="text_2">
      <!-- 0.2 -->
      <g transform="translate(97.200822 239.238437)scale(0.1 -0.1)">
       <defs>
        <path d="M 19.1875 8.296875 
L 53.609375 8.296875 
L 53.609375 0 
L 7.328125 0 
L 7.328125 8.296875 
Q 12.9375 14.109375 22.625 23.890625 
Q 32.328125 33.6875 34.8125 36.53125 
Q 39.546875 41.84375 41.421875 45.53125 
Q 43.3125 49.21875 43.3125 52.78125 
Q 43.3125 58.59375 39.234375 62.25 
Q 35.15625 65.921875 28.609375 65.921875 
Q 23.96875 65.921875 18.8125 64.3125 
Q 13.671875 62.703125 7.8125 59.421875 
L 7.8125 69.390625 
Q 13.765625 71.78125 18.9375 73 
Q 24.125 74.21875 28.421875 74.21875 
Q 39.75 74.21875 46.484375 68.546875 
Q 53.21875 62.890625 53.21875 53.421875 
Q 53.21875 48.921875 51.53125 44.890625 
Q 49.859375 40.875 45.40625 35.40625 
Q 44.1875 33.984375 37.640625 27.21875 
Q 31.109375 20.453125 19.1875 8.296875 
z
" id="DejaVuSans-50"/>
       </defs>
       <use xlink:href="#DejaVuSans-48"/>
       <use x="63.623047" xlink:href="#DejaVuSans-46"/>
       <use x="95.410156" xlink:href="#DejaVuSans-50"/>
      </g>
     </g>
    </g>
    <g id="xtick_3">
     <g id="line2d_3">
      <g>
       <use style="stroke:#000000;stroke-width:0.8;" x="167.010235" xlink:href="#m9737a330e4" y="224.64"/>
      </g>
     </g>
     <g id="text_3">
      <!-- 0.4 -->
      <g transform="translate(159.058673 239.238437)scale(0.1 -0.1)">
       <defs>
        <path d="M 37.796875 64.3125 
L 12.890625 25.390625 
L 37.796875 25.390625 
z
M 35.203125 72.90625 
L 47.609375 72.90625 
L 47.609375 25.390625 
L 58.015625 25.390625 
L 58.015625 17.1875 
L 47.609375 17.1875 
L 47.609375 0 
L 37.796875 0 
L 37.796875 17.1875 
L 4.890625 17.1875 
L 4.890625 26.703125 
z
" id="DejaVuSans-52"/>
       </defs>
       <use xlink:href="#DejaVuSans-48"/>
       <use x="63.623047" xlink:href="#DejaVuSans-46"/>
       <use x="95.410156" xlink:href="#DejaVuSans-52"/>
      </g>
     </g>
    </g>
    <g id="xtick_4">
     <g id="line2d_4">
      <g>
       <use style="stroke:#000000;stroke-width:0.8;" x="228.868086" xlink:href="#m9737a330e4" y="224.64"/>
      </g>
     </g>
     <g id="text_4">
      <!-- 0.6 -->
      <g transform="translate(220.916524 239.238437)scale(0.1 -0.1)">
       <defs>
        <path d="M 33.015625 40.375 
Q 26.375 40.375 22.484375 35.828125 
Q 18.609375 31.296875 18.609375 23.390625 
Q 18.609375 15.53125 22.484375 10.953125 
Q 26.375 6.390625 33.015625 6.390625 
Q 39.65625 6.390625 43.53125 10.953125 
Q 47.40625 15.53125 47.40625 23.390625 
Q 47.40625 31.296875 43.53125 35.828125 
Q 39.65625 40.375 33.015625 40.375 
z
M 52.59375 71.296875 
L 52.59375 62.3125 
Q 48.875 64.0625 45.09375 64.984375 
Q 41.3125 65.921875 37.59375 65.921875 
Q 27.828125 65.921875 22.671875 59.328125 
Q 17.53125 52.734375 16.796875 39.40625 
Q 19.671875 43.65625 24.015625 45.921875 
Q 28.375 48.1875 33.59375 48.1875 
Q 44.578125 48.1875 50.953125 41.515625 
Q 57.328125 34.859375 57.328125 23.390625 
Q 57.328125 12.15625 50.6875 5.359375 
Q 44.046875 -1.421875 33.015625 -1.421875 
Q 20.359375 -1.421875 13.671875 8.265625 
Q 6.984375 17.96875 6.984375 36.375 
Q 6.984375 53.65625 15.1875 63.9375 
Q 23.390625 74.21875 37.203125 74.21875 
Q 40.921875 74.21875 44.703125 73.484375 
Q 48.484375 72.75 52.59375 71.296875 
z
" id="DejaVuSans-54"/>
       </defs>
       <use xlink:href="#DejaVuSans-48"/>
       <use x="63.623047" xlink:href="#DejaVuSans-46"/>
       <use x="95.410156" xlink:href="#DejaVuSans-54"/>
      </g>
     </g>
    </g>
    <g id="xtick_5">
     <g id="line2d_5">
      <g>
       <use style="stroke:#000000;stroke-width:0.8;" x="290.725937" xlink:href="#m9737a330e4" y="224.64"/>
      </g>
     </g>
     <g id="text_5">
      <!-- 0.8 -->
      <g transform="translate(282.774374 239.238437)scale(0.1 -0.1)">
       <defs>
        <path d="M 31.78125 34.625 
Q 24.75 34.625 20.71875 30.859375 
Q 16.703125 27.09375 16.703125 20.515625 
Q 16.703125 13.921875 20.71875 10.15625 
Q 24.75 6.390625 31.78125 6.390625 
Q 38.8125 6.390625 42.859375 10.171875 
Q 46.921875 13.96875 46.921875 20.515625 
Q 46.921875 27.09375 42.890625 30.859375 
Q 38.875 34.625 31.78125 34.625 
z
M 21.921875 38.8125 
Q 15.578125 40.375 12.03125 44.71875 
Q 8.5 49.078125 8.5 55.328125 
Q 8.5 64.0625 14.71875 69.140625 
Q 20.953125 74.21875 31.78125 74.21875 
Q 42.671875 74.21875 48.875 69.140625 
Q 55.078125 64.0625 55.078125 55.328125 
Q 55.078125 49.078125 51.53125 44.71875 
Q 48 40.375 41.703125 38.8125 
Q 48.828125 37.15625 52.796875 32.3125 
Q 56.78125 27.484375 56.78125 20.515625 
Q 56.78125 9.90625 50.3125 4.234375 
Q 43.84375 -1.421875 31.78125 -1.421875 
Q 19.734375 -1.421875 13.25 4.234375 
Q 6.78125 9.90625 6.78125 20.515625 
Q 6.78125 27.484375 10.78125 32.3125 
Q 14.796875 37.15625 21.921875 38.8125 
z
M 18.3125 54.390625 
Q 18.3125 48.734375 21.84375 45.5625 
Q 25.390625 42.390625 31.78125 42.390625 
Q 38.140625 42.390625 41.71875 45.5625 
Q 45.3125 48.734375 45.3125 54.390625 
Q 45.3125 60.0625 41.71875 63.234375 
Q 38.140625 66.40625 31.78125 66.40625 
Q 25.390625 66.40625 21.84375 63.234375 
Q 18.3125 60.0625 18.3125 54.390625 
z
" id="DejaVuSans-56"/>
       </defs>
       <use xlink:href="#DejaVuSans-48"/>
       <use x="63.623047" xlink:href="#DejaVuSans-46"/>
       <use x="95.410156" xlink:href="#DejaVuSans-56"/>
      </g>
     </g>
    </g>
    <g id="xtick_6">
     <g id="line2d_6">
      <g>
       <use style="stroke:#000000;stroke-width:0.8;" x="352.583788" xlink:href="#m9737a330e4" y="224.64"/>
      </g>
     </g>
     <g id="text_6">
      <!-- 1.0 -->
      <g transform="translate(344.632225 239.238437)scale(0.1 -0.1)">
       <defs>
        <path d="M 12.40625 8.296875 
L 28.515625 8.296875 
L 28.515625 63.921875 
L 10.984375 60.40625 
L 10.984375 69.390625 
L 28.421875 72.90625 
L 38.28125 72.90625 
L 38.28125 8.296875 
L 54.390625 8.296875 
L 54.390625 0 
L 12.40625 0 
z
" id="DejaVuSans-49"/>
       </defs>
       <use xlink:href="#DejaVuSans-49"/>
       <use x="63.623047" xlink:href="#DejaVuSans-46"/>
       <use x="95.410156" xlink:href="#DejaVuSans-48"/>
      </g>
     </g>
    </g>
    <g id="text_7">
     <!-- Random Data -->
     <g transform="translate(115.36125 263.554375)scale(0.24 -0.24)">
      <defs>
       <path d="M 44.390625 34.1875 
Q 47.5625 33.109375 50.5625 29.59375 
Q 53.5625 26.078125 56.59375 19.921875 
L 66.609375 0 
L 56 0 
L 46.6875 18.703125 
Q 43.0625 26.03125 39.671875 28.421875 
Q 36.28125 30.8125 30.421875 30.8125 
L 19.671875 30.8125 
L 19.671875 0 
L 9.8125 0 
L 9.8125 72.90625 
L 32.078125 72.90625 
Q 44.578125 72.90625 50.734375 67.671875 
Q 56.890625 62.453125 56.890625 51.90625 
Q 56.890625 45.015625 53.6875 40.46875 
Q 50.484375 35.9375 44.390625 34.1875 
z
M 19.671875 64.796875 
L 19.671875 38.921875 
L 32.078125 38.921875 
Q 39.203125 38.921875 42.84375 42.21875 
Q 46.484375 45.515625 46.484375 51.90625 
Q 46.484375 58.296875 42.84375 61.546875 
Q 39.203125 64.796875 32.078125 64.796875 
z
" id="DejaVuSans-82"/>
       <path d="M 34.28125 27.484375 
Q 23.390625 27.484375 19.1875 25 
Q 14.984375 22.515625 14.984375 16.5 
Q 14.984375 11.71875 18.140625 8.90625 
Q 21.296875 6.109375 26.703125 6.109375 
Q 34.1875 6.109375 38.703125 11.40625 
Q 43.21875 16.703125 43.21875 25.484375 
L 43.21875 27.484375 
z
M 52.203125 31.203125 
L 52.203125 0 
L 43.21875 0 
L 43.21875 8.296875 
Q 40.140625 3.328125 35.546875 0.953125 
Q 30.953125 -1.421875 24.3125 -1.421875 
Q 15.921875 -1.421875 10.953125 3.296875 
Q 6 8.015625 6 15.921875 
Q 6 25.140625 12.171875 29.828125 
Q 18.359375 34.515625 30.609375 34.515625 
L 43.21875 34.515625 
L 43.21875 35.40625 
Q 43.21875 41.609375 39.140625 45 
Q 35.0625 48.390625 27.6875 48.390625 
Q 23 48.390625 18.546875 47.265625 
Q 14.109375 46.140625 10.015625 43.890625 
L 10.015625 52.203125 
Q 14.9375 54.109375 19.578125 55.046875 
Q 24.21875 56 28.609375 56 
Q 40.484375 56 46.34375 49.84375 
Q 52.203125 43.703125 52.203125 31.203125 
z
" id="DejaVuSans-97"/>
       <path d="M 54.890625 33.015625 
L 54.890625 0 
L 45.90625 0 
L 45.90625 32.71875 
Q 45.90625 40.484375 42.875 44.328125 
Q 39.84375 48.1875 33.796875 48.1875 
Q 26.515625 48.1875 22.3125 43.546875 
Q 18.109375 38.921875 18.109375 30.90625 
L 18.109375 0 
L 9.078125 0 
L 9.078125 54.6875 
L 18.109375 54.6875 
L 18.109375 46.1875 
Q 21.34375 51.125 25.703125 53.5625 
Q 30.078125 56 35.796875 56 
Q 45.21875 56 50.046875 50.171875 
Q 54.890625 44.34375 54.890625 33.015625 
z
" id="DejaVuSans-110"/>
       <path d="M 45.40625 46.390625 
L 45.40625 75.984375 
L 54.390625 75.984375 
L 54.390625 0 
L 45.40625 0 
L 45.40625 8.203125 
Q 42.578125 3.328125 38.25 0.953125 
Q 33.9375 -1.421875 27.875 -1.421875 
Q 17.96875 -1.421875 11.734375 6.484375 
Q 5.515625 14.40625 5.515625 27.296875 
Q 5.515625 40.1875 11.734375 48.09375 
Q 17.96875 56 27.875 56 
Q 33.9375 56 38.25 53.625 
Q 42.578125 51.265625 45.40625 46.390625 
z
M 14.796875 27.296875 
Q 14.796875 17.390625 18.875 11.75 
Q 22.953125 6.109375 30.078125 6.109375 
Q 37.203125 6.109375 41.296875 11.75 
Q 45.40625 17.390625 45.40625 27.296875 
Q 45.40625 37.203125 41.296875 42.84375 
Q 37.203125 48.484375 30.078125 48.484375 
Q 22.953125 48.484375 18.875 42.84375 
Q 14.796875 37.203125 14.796875 27.296875 
z
" id="DejaVuSans-100"/>
       <path d="M 30.609375 48.390625 
Q 23.390625 48.390625 19.1875 42.75 
Q 14.984375 37.109375 14.984375 27.296875 
Q 14.984375 17.484375 19.15625 11.84375 
Q 23.34375 6.203125 30.609375 6.203125 
Q 37.796875 6.203125 41.984375 11.859375 
Q 46.1875 17.53125 46.1875 27.296875 
Q 46.1875 37.015625 41.984375 42.703125 
Q 37.796875 48.390625 30.609375 48.390625 
z
M 30.609375 56 
Q 42.328125 56 49.015625 48.375 
Q 55.71875 40.765625 55.71875 27.296875 
Q 55.71875 13.875 49.015625 6.21875 
Q 42.328125 -1.421875 30.609375 -1.421875 
Q 18.84375 -1.421875 12.171875 6.21875 
Q 5.515625 13.875 5.515625 27.296875 
Q 5.515625 40.765625 12.171875 48.375 
Q 18.84375 56 30.609375 56 
z
" id="DejaVuSans-111"/>
       <path d="M 52 44.1875 
Q 55.375 50.25 60.0625 53.125 
Q 64.75 56 71.09375 56 
Q 79.640625 56 84.28125 50.015625 
Q 88.921875 44.046875 88.921875 33.015625 
L 88.921875 0 
L 79.890625 0 
L 79.890625 32.71875 
Q 79.890625 40.578125 77.09375 44.375 
Q 74.3125 48.1875 68.609375 48.1875 
Q 61.625 48.1875 57.5625 43.546875 
Q 53.515625 38.921875 53.515625 30.90625 
L 53.515625 0 
L 44.484375 0 
L 44.484375 32.71875 
Q 44.484375 40.625 41.703125 44.40625 
Q 38.921875 48.1875 33.109375 48.1875 
Q 26.21875 48.1875 22.15625 43.53125 
Q 18.109375 38.875 18.109375 30.90625 
L 18.109375 0 
L 9.078125 0 
L 9.078125 54.6875 
L 18.109375 54.6875 
L 18.109375 46.1875 
Q 21.1875 51.21875 25.484375 53.609375 
Q 29.78125 56 35.6875 56 
Q 41.65625 56 45.828125 52.96875 
Q 50 49.953125 52 44.1875 
z
" id="DejaVuSans-109"/>
       <path id="DejaVuSans-32"/>
       <path d="M 19.671875 64.796875 
L 19.671875 8.109375 
L 31.59375 8.109375 
Q 46.6875 8.109375 53.6875 14.9375 
Q 60.6875 21.78125 60.6875 36.53125 
Q 60.6875 51.171875 53.6875 57.984375 
Q 46.6875 64.796875 31.59375 64.796875 
z
M 9.8125 72.90625 
L 30.078125 72.90625 
Q 51.265625 72.90625 61.171875 64.09375 
Q 71.09375 55.28125 71.09375 36.53125 
Q 71.09375 17.671875 61.125 8.828125 
Q 51.171875 0 30.078125 0 
L 9.8125 0 
z
" id="DejaVuSans-68"/>
       <path d="M 18.3125 70.21875 
L 18.3125 54.6875 
L 36.8125 54.6875 
L 36.8125 47.703125 
L 18.3125 47.703125 
L 18.3125 18.015625 
Q 18.3125 11.328125 20.140625 9.421875 
Q 21.96875 7.515625 27.59375 7.515625 
L 36.8125 7.515625 
L 36.8125 0 
L 27.59375 0 
Q 17.1875 0 13.234375 3.875 
Q 9.28125 7.765625 9.28125 18.015625 
L 9.28125 47.703125 
L 2.6875 47.703125 
L 2.6875 54.6875 
L 9.28125 54.6875 
L 9.28125 70.21875 
z
" id="DejaVuSans-116"/>
      </defs>
      <use xlink:href="#DejaVuSans-82"/>
      <use x="67.232422" xlink:href="#DejaVuSans-97"/>
      <use x="128.511719" xlink:href="#DejaVuSans-110"/>
      <use x="191.890625" xlink:href="#DejaVuSans-100"/>
      <use x="255.367188" xlink:href="#DejaVuSans-111"/>
      <use x="316.548828" xlink:href="#DejaVuSans-109"/>
      <use x="413.960938" xlink:href="#DejaVuSans-32"/>
      <use x="445.748047" xlink:href="#DejaVuSans-68"/>
      <use x="522.75" xlink:href="#DejaVuSans-97"/>
      <use x="584.029297" xlink:href="#DejaVuSans-116"/>
      <use x="623.238281" xlink:href="#DejaVuSans-97"/>
     </g>
    </g>
   </g>
   <g id="matplotlib.axis_2">
    <g id="ytick_1">
     <g id="line2d_7">
      <defs>
       <path d="M 0 0 
L -3.5 0 
" id="maf5e0f2e7a" style="stroke:#000000;stroke-width:0.8;"/>
      </defs>
      <g>
       <use style="stroke:#000000;stroke-width:0.8;" x="30.103125" xlink:href="#maf5e0f2e7a" y="180.425138"/>
      </g>
     </g>
     <g id="text_8">
      <!-- 0.5 -->
      <g transform="translate(7.2 184.224356)scale(0.1 -0.1)">
       <defs>
        <path d="M 10.796875 72.90625 
L 49.515625 72.90625 
L 49.515625 64.59375 
L 19.828125 64.59375 
L 19.828125 46.734375 
Q 21.96875 47.46875 24.109375 47.828125 
Q 26.265625 48.1875 28.421875 48.1875 
Q 40.625 48.1875 47.75 41.5 
Q 54.890625 34.8125 54.890625 23.390625 
Q 54.890625 11.625 47.5625 5.09375 
Q 40.234375 -1.421875 26.90625 -1.421875 
Q 22.3125 -1.421875 17.546875 -0.640625 
Q 12.796875 0.140625 7.71875 1.703125 
L 7.71875 11.625 
Q 12.109375 9.234375 16.796875 8.0625 
Q 21.484375 6.890625 26.703125 6.890625 
Q 35.15625 6.890625 40.078125 11.328125 
Q 45.015625 15.765625 45.015625 23.390625 
Q 45.015625 31 40.078125 35.4375 
Q 35.15625 39.890625 26.703125 39.890625 
Q 22.75 39.890625 18.8125 39.015625 
Q 14.890625 38.140625 10.796875 36.28125 
z
" id="DejaVuSans-53"/>
       </defs>
       <use xlink:href="#DejaVuSans-48"/>
       <use x="63.623047" xlink:href="#DejaVuSans-46"/>
       <use x="95.410156" xlink:href="#DejaVuSans-53"/>
      </g>
     </g>
    </g>
    <g id="ytick_2">
     <g id="line2d_8">
      <g>
       <use style="stroke:#000000;stroke-width:0.8;" x="30.103125" xlink:href="#maf5e0f2e7a" y="135.366903"/>
      </g>
     </g>
     <g id="text_9">
      <!-- 1.0 -->
      <g transform="translate(7.2 139.166122)scale(0.1 -0.1)">
       <use xlink:href="#DejaVuSans-49"/>
       <use x="63.623047" xlink:href="#DejaVuSans-46"/>
       <use x="95.410156" xlink:href="#DejaVuSans-48"/>
      </g>
     </g>
    </g>
    <g id="ytick_3">
     <g id="line2d_9">
      <g>
       <use style="stroke:#000000;stroke-width:0.8;" x="30.103125" xlink:href="#maf5e0f2e7a" y="90.308668"/>
      </g>
     </g>
     <g id="text_10">
      <!-- 1.5 -->
      <g transform="translate(7.2 94.107887)scale(0.1 -0.1)">
       <use xlink:href="#DejaVuSans-49"/>
       <use x="63.623047" xlink:href="#DejaVuSans-46"/>
       <use x="95.410156" xlink:href="#DejaVuSans-53"/>
      </g>
     </g>
    </g>
    <g id="ytick_4">
     <g id="line2d_10">
      <g>
       <use style="stroke:#000000;stroke-width:0.8;" x="30.103125" xlink:href="#maf5e0f2e7a" y="45.250433"/>
      </g>
     </g>
     <g id="text_11">
      <!-- 2.0 -->
      <g transform="translate(7.2 49.049652)scale(0.1 -0.1)">
       <use xlink:href="#DejaVuSans-50"/>
       <use x="63.623047" xlink:href="#DejaVuSans-46"/>
       <use x="95.410156" xlink:href="#DejaVuSans-48"/>
      </g>
     </g>
    </g>
   </g>
   <g id="patch_3">
    <path d="M 30.103125 224.64 
L 30.103125 7.2 
" style="fill:none;stroke:#000000;stroke-linecap:square;stroke-linejoin:miter;stroke-width:0.8;"/>
   </g>
   <g id="patch_4">
    <path d="M 364.903125 224.64 
L 364.903125 7.2 
" style="fill:none;stroke:#000000;stroke-linecap:square;stroke-linejoin:miter;stroke-width:0.8;"/>
   </g>
   <g id="patch_5">
    <path d="M 30.103125 224.64 
L 364.903125 224.64 
" style="fill:none;stroke:#000000;stroke-linecap:square;stroke-linejoin:miter;stroke-width:0.8;"/>
   </g>
   <g id="patch_6">
    <path d="M 30.103125 7.2 
L 364.903125 7.2 
" style="fill:none;stroke:#000000;stroke-linecap:square;stroke-linejoin:miter;stroke-width:0.8;"/>
   </g>
  </g>
 </g>
 <defs>
  <clipPath id="pac34155aec">
   <rect height="217.44" width="334.8" x="30.103125" y="7.2"/>
  </clipPath>
 </defs>
</svg>
